<?xml version="1.0" standalone="no"?>
<!DOCTYPE svg PUBLIC "-//W3C//DTD SVG 20010904//EN"
 "http://www.w3.org/TR/2001/REC-SVG-20010904/DTD/svg10.dtd">
<svg version="1.0" xmlns="http://www.w3.org/2000/svg"
 width="512.000000pt" height="512.000000pt" viewBox="0 0 512.000000 512.000000"
 preserveAspectRatio="xMidYMid meet">

<g transform="translate(0.000000,512.000000) scale(0.100000,-0.100000)"
fill="#000000" stroke="none">
<path d="M2389 4620 c-48 -4 -121 -14 -163 -20 l-76 -13 0 -248 0 -249 -464 0
-464 0 -66 -70 c-145 -154 -270 -331 -375 -531 -34 -64 -61 -119 -61 -122 0
-4 321 -8 713 -9 l712 -3 3 -374 2 -375 24 32 c85 115 237 170 440 159 157 -8
265 -57 345 -155 l30 -37 1 378 0 377 705 0 705 0 -56 111 c-106 213 -223 384
-366 535 l-80 84 -454 0 -454 0 0 244 c0 135 -4 247 -8 250 -4 2 -56 12 -116
21 -132 19 -360 27 -477 15z"/>
<path d="M2450 2739 c-115 -20 -228 -97 -270 -183 -22 -46 -28 -143 -10 -176
8 -16 8 -18 -5 -14 -12 5 -15 -4 -15 -50 0 -31 2 -56 4 -56 2 0 17 7 32 15 43
22 740 22 770 0 30 -23 34 -19 34 41 0 48 -2 55 -16 50 -13 -5 -14 -2 -8 11
16 32 9 136 -11 173 -42 81 -111 139 -201 170 -68 24 -224 34 -304 19z m10
-64 c17 -21 5 -45 -24 -45 -29 0 -40 24 -20 45 19 19 28 19 44 0z m135 -15 c0
-30 -35 -40 -55 -15 -10 12 -10 18 0 30 20 25 55 15 55 -15z m125 15 c17 -21
5 -45 -24 -45 -28 0 -37 17 -24 43 11 21 31 22 48 2z m-370 -70 c10 -12 6 -22
-24 -55 -23 -26 -38 -54 -42 -80 -13 -79 -60 -77 -55 2 1 24 13 62 27 85 35
60 69 78 94 48z m108 -63 c4 -28 -24 -40 -45 -19 -14 13 -14 19 -3 32 18 22
44 15 48 -13z m136 12 c7 -19 -10 -44 -31 -44 -17 0 -27 24 -19 45 7 20 42 19
50 -1z m131 -14 c0 -18 -6 -26 -23 -28 -24 -4 -38 18 -28 44 3 9 15 14 28 12
17 -2 23 -10 23 -28z"/>
<path d="M2213 2260 c-53 -32 -60 -53 -72 -215 -7 -82 -18 -181 -26 -220 -8
-38 -16 -133 -20 -210 -3 -77 -10 -169 -15 -205 -5 -36 -14 -142 -20 -235 -15
-221 -7 -261 68 -354 41 -51 109 -97 167 -112 24 -7 134 -11 283 -10 241 1
245 1 303 27 70 32 140 102 174 177 28 60 33 156 14 312 -6 50 -12 106 -14
125 -2 19 -8 73 -14 120 -5 47 -12 125 -16 175 -3 49 -8 92 -10 95 -4 6 -10
92 -24 340 -6 109 -10 130 -30 159 -13 18 -34 37 -48 42 -13 5 -169 9 -346 9
-302 0 -324 -1 -354 -20z m679 -67 c12 -14 21 -81 37 -263 25 -286 57 -626 71
-757 14 -127 12 -182 -6 -236 -22 -64 -82 -130 -144 -156 -49 -21 -63 -22
-298 -19 -213 3 -251 5 -279 21 -51 28 -103 86 -131 145 -23 52 -24 61 -18
171 4 64 11 157 16 206 6 50 19 189 30 310 45 490 52 545 72 571 l19 24 308 0
c281 0 309 -2 323 -17z"/>
<path d="M2479 1887 c-155 -44 -251 -171 -251 -334 0 -124 72 -240 187 -301
45 -24 61 -27 150 -27 86 0 106 3 144 23 71 38 135 106 166 173 25 56 27 70
23 153 -5 101 -20 141 -83 213 -74 86 -226 131 -336 100z m185 -81 c52 -22
117 -86 142 -141 28 -59 32 -147 9 -202 -32 -75 -23 -79 -222 119 -101 100
-183 186 -183 191 0 4 19 17 43 27 51 24 162 27 211 6z m-120 -275 c198 -199
197 -195 109 -225 -124 -42 -253 7 -321 122 -23 41 -27 58 -27 127 0 82 23
155 49 155 6 0 92 -81 190 -179z"/>
<path d="M2207 1314 c-14 -14 -7 -35 11 -32 9 2 17 10 17 17 0 16 -18 25 -28
15z"/>
<path d="M2791 1236 c-9 -10 -8 -16 4 -26 19 -16 41 1 32 24 -8 20 -21 20 -36
2z"/>
<path d="M2300 1225 c0 -9 5 -15 11 -13 6 2 11 8 11 13 0 5 -5 11 -11 13 -6 2
-11 -4 -11 -13z"/>
<path d="M2922 1223 c2 -10 10 -18 18 -18 22 0 18 29 -3 33 -14 3 -18 -1 -15
-15z"/>
<path d="M2205 1210 c-4 -7 -3 -16 3 -22 14 -14 45 -2 40 15 -6 16 -34 21 -43
7z"/>
<path d="M2872 1163 c2 -10 10 -18 18 -18 8 0 16 8 18 18 2 12 -3 17 -18 17
-15 0 -20 -5 -18 -17z"/>
<path d="M2713 1154 c-8 -21 13 -42 28 -27 13 13 5 43 -11 43 -6 0 -13 -7 -17
-16z"/>
<path d="M2342 1143 c5 -26 38 -29 38 -4 0 15 -6 21 -21 21 -14 0 -19 -5 -17
-17z"/>
<path d="M2577 1124 c-14 -14 -7 -35 11 -32 9 2 17 10 17 17 0 16 -18 25 -28
15z"/>
<path d="M2172 1103 c4 -21 33 -25 33 -3 0 8 -8 16 -18 18 -14 3 -18 -1 -15
-15z"/>
<path d="M2260 1100 c0 -23 35 -28 43 -6 7 18 -1 26 -25 26 -11 0 -18 -7 -18
-20z"/>
<path d="M2795 1110 c-4 -7 -3 -16 3 -22 14 -14 45 -2 40 15 -6 16 -34 21 -43
7z"/>
<path d="M2930 1105 c0 -8 7 -15 15 -15 8 0 15 7 15 15 0 8 -7 15 -15 15 -8 0
-15 -7 -15 -15z"/>
<path d="M2424 1089 c-3 -6 0 -17 8 -25 13 -13 16 -13 27 0 7 8 10 20 6 26 -8
13 -32 13 -41 -1z"/>
<path d="M2655 1070 c-4 -7 -3 -16 3 -22 14 -14 45 -2 40 15 -6 16 -34 21 -43
7z"/>
<path d="M2865 1041 c-8 -15 3 -31 21 -31 9 0 14 7 12 17 -4 20 -24 28 -33 14z"/>
<path d="M2344 1025 c-4 -9 -2 -21 4 -27 15 -15 44 -1 40 19 -4 23 -36 29 -44
8z"/>
<path d="M2522 1023 c4 -22 43 -25 43 -3 0 8 -11 16 -23 18 -19 3 -23 0 -20
-15z"/>
<path d="M2232 1017 c-15 -17 1 -42 23 -33 18 6 17 37 -1 43 -6 2 -16 -2 -22
-10z"/>
<path d="M2740 1011 c0 -26 17 -36 35 -21 18 15 8 40 -16 40 -12 0 -19 -7 -19
-19z"/>
<path d="M2613 974 c-8 -22 18 -37 36 -20 7 8 10 19 7 25 -10 16 -36 13 -43
-5z"/>
<path d="M2444 965 c-4 -9 -2 -21 4 -27 15 -15 44 -1 40 19 -4 23 -36 29 -44
8z"/>
<path d="M2840 930 c0 -13 7 -20 18 -20 24 0 32 8 25 26 -8 22 -43 17 -43 -6z"/>
<path d="M2264 929 c-9 -15 11 -33 30 -26 9 4 13 13 10 22 -7 17 -30 20 -40 4z"/>
<path d="M2534 906 c-8 -21 3 -36 27 -36 15 0 20 6 17 22 -4 27 -35 37 -44 14z"/>
<path d="M2725 910 c-9 -15 14 -40 31 -33 22 8 18 43 -5 43 -11 0 -23 -5 -26
-10z"/>
<path d="M2355 900 c-9 -15 4 -30 26 -30 12 0 19 7 19 20 0 21 -33 29 -45 10z"/>
<path d="M2456 863 c-14 -15 -5 -43 14 -43 13 0 20 7 20 19 0 19 -23 35 -34
24z"/>
<path d="M2635 860 c-4 -7 -3 -16 3 -22 14 -14 45 -2 40 15 -6 16 -34 21 -43
7z"/>
</g>
</svg>
